<svg width="1535" height="666" viewBox="0 0 1535 666" fill="none" xmlns="http://www.w3.org/2000/svg">
<path d="M1485.56 601.997C1487.86 612.527 1477.89 621.592 1467.62 618.313L1415.94 601.808C1405.67 598.53 1402.8 585.367 1410.78 578.115L1450.91 541.607C1458.89 534.356 1471.72 538.454 1474.01 548.984L1485.56 601.997Z" fill="#0094E7"/>
<path opacity="0.5" d="M118.561 431.997C120.855 442.527 110.89 451.592 100.623 448.313L48.9383 431.808C38.6719 428.53 35.8044 415.367 43.7768 408.115L83.913 371.607C91.8854 364.356 104.718 368.454 107.012 378.984L118.561 431.997Z" fill="#0094E7"/>
<path opacity="0.52" d="M713.561 76.997C715.855 87.5272 705.89 96.5919 695.623 93.3135L643.938 76.8085C633.672 73.5301 630.804 60.3673 638.777 53.1155L678.913 16.6075C686.885 9.35574 699.718 13.4538 702.012 23.984L713.561 76.997Z" fill="#0094E7"/>
</svg>
